<svg width="220" height="60" xmlns="http://www.w3.org/2000/svg" class="fl-svgdocument">

 <g>
  <title>Layer 1</title>
  <g transform="matrix(0.487883 0 0 0.498731 60.2496 71.9403)" id="tight-bounds">
   <svg y="-135.98987" x="-100.95514" id="svg_25" width="395.52" height="110.75151" viewBox="0 0 395.52 110.75151181928629">
    <svg id="svg_26" width="395.52" height="110.75151" viewBox="0 0 572.2139519990633 160.2284594154146">
     <g id="svg_9" transform="matrix(1,0,0,1,176.69395199906336,45.24094190282925)">
      <svg id="svg_27" width="395.52" height="69.74658" viewBox="0 0 395.52 69.74657560975609">
       <svg id="svg_28" width="395.52" height="69.74658" viewBox="0 0 395.52 69.74657560975609">
        <svg id="svg_29" width="395.52" height="69.74658" viewBox="0 0 395.52 69.74657560975609">
         <svg id="svg_30" data-palette-color="#000000" height="69.74658" viewBox="3.5 -35.65 204.99 36.15" width="395.52">
          <path id="svg_14" data-fill-palette-color="primary" class="undefined-text-0" fill="#000000" d="m36.75,-16.75q0,2.55 0.1,6.85l0,0q0.1,4.3 0.1,6.7l0,0q0,1.7 -0.95,2.62q-0.95,0.93 -2.65,0.93l0,0q-1.7,0 -2.7,-0.9q-1,-0.9 -1,-2.4l0,0l0,-13.5q0,-4.9 -0.3,-7.63q-0.3,-2.72 -0.75,-2.72l0,0q-0.4,0 -1.2,2.1q-0.8,2.1 -1.4,4.15l0,0q-0.85,2.8 -1.75,6.5l0,0q-0.35,1.35 -1.35,2q-1,0.65 -2.65,0.65l0,0q-3.35,0 -4.05,-2.45l0,0l-0.6,-2.15q-0.7,-2.55 -1.45,-4.75l0,0q-0.6,-1.75 -1.5,-3.9q-0.9,-2.15 -1.15,-2.15l0,0q-0.3,0 -0.45,2.77q-0.15,2.78 -0.25,7.38l0,0q-0.05,1.8 -0.05,4.8l0,0l0.05,9q0,1.35 -1,2.17q-1,0.83 -2.75,0.83l0,0q-1.7,0 -2.63,-0.9q-0.92,-0.9 -0.92,-3.1l0,0l0.05,-6.3q0.1,-4.2 0.1,-6.65l0,0q0,-6.8 0.7,-10.93q0.7,-4.12 2.2,-6.02q1.5,-1.9 3.95,-1.9l0,0q2.95,0 4.88,2.35q1.92,2.35 2.9,5.3q0.97,2.95 1.87,7l0,0q0.95,-3.9 2.05,-6.93q1.1,-3.02 3.08,-5.37q1.97,-2.35 4.82,-2.35l0,0q2.6,0 4.05,2.17q1.45,2.18 2.03,6.25q0.57,4.08 0.57,10.48l0,0zm28.55,-17.85q1.5,0.15 2.35,0.87q0.85,0.73 0.85,2.43l0,0q0,1.75 -0.98,2.55q-0.97,0.8 -2.77,0.7l0,0q-3.6,-0.25 -5.9,-0.25l0,0q-0.4,5.65 -0.55,11.3l0,0q-0.15,5.6 -0.15,14.2l0,0q0,1.85 -0.73,2.57q-0.72,0.73 -2.77,0.73l0,0q-2.15,0 -3.1,-0.75q-0.95,-0.75 -0.95,-2.5l0,0q0,-7.3 0.35,-14.25l0,0l0.6,-11.25q-2.2,0.1 -3.55,0.2l0,0l-2.2,0.15q-0.2,0.05 -0.6,0.05l0,0q-1.45,0 -2.35,-0.95q-0.9,-0.95 -0.9,-2.5l0,0q0,-1.45 0.77,-2.15q0.78,-0.7 2.18,-0.9l0,0q1.8,-0.25 5.05,-0.4q3.25,-0.15 6,-0.15l0,0q2.25,0 5.12,0.07q2.88,0.08 4.23,0.23l0,0zm24.65,34.3q-5.25,0 -9.2,-2.08q-3.95,-2.07 -6.1,-5.9q-2.15,-3.82 -2.15,-9.02l0,0q0,-5.25 2.2,-9.38q2.2,-4.12 6.12,-6.45q3.93,-2.32 8.98,-2.32l0,0q5.2,0 9.37,2.43q4.17,2.42 6.55,6.62q2.37,4.2 2.37,9.3l0,0q0,5.05 -2.32,8.85q-2.32,3.8 -6.43,5.87q-4.09,2.08 -9.39,2.08l0,0zm0.3,-6.5q3,0 5.4,-1.2q2.4,-1.2 3.8,-3.6q1.39,-2.4 1.39,-5.8l0,0q0,-3.35 -1.32,-5.98q-1.32,-2.62 -3.77,-4.1q-2.45,-1.47 -5.66,-1.47l0,0q-3.19,0 -5.52,1.47q-2.32,1.48 -3.57,4.05q-1.25,2.58 -1.25,5.88l0,0q0,5.2 2.92,7.97q2.92,2.78 7.58,2.78l0,0zm40.29,6.5q-5.25,0 -9.2,-2.08q-3.95,-2.07 -6.1,-5.9q-2.15,-3.82 -2.15,-9.02l0,0q0,-5.25 2.2,-9.38q2.2,-4.12 6.13,-6.45q3.92,-2.32 8.97,-2.32l0,0q5.2,0 9.38,2.43q4.17,2.42 6.55,6.62q2.37,4.2 2.37,9.3l0,0q0,5.05 -2.32,8.85q-2.33,3.8 -6.43,5.87q-4.1,2.08 -9.4,2.08l0,0zm0.3,-6.5q3,0 5.4,-1.2q2.4,-1.2 3.8,-3.6q1.4,-2.4 1.4,-5.8l0,0q0,-3.35 -1.32,-5.98q-1.33,-2.62 -3.78,-4.1q-2.45,-1.47 -5.65,-1.47l0,0q-3.2,0 -5.52,1.47q-2.33,1.48 -3.58,4.05q-1.25,2.58 -1.25,5.88l0,0q0,5.2 2.93,7.97q2.92,2.78 7.57,2.78l0,0zm34.3,6.95q-4.9,0 -7.17,-1.05q-2.28,-1.05 -3.03,-3.5q-0.75,-2.45 -0.75,-7.55l0,0q0,-5.75 0.53,-10.55q0.52,-4.8 1.42,-10.1l0,0q0.2,-1.2 1.23,-1.92q1.02,-0.73 2.62,-0.73l0,0q1.7,0 2.57,0.82q0.88,0.83 0.88,2.23l0,0q0,0.3 -0.1,0.9l0,0q-1.05,6.15 -1.6,10.47q-0.55,4.33 -0.55,9.08l0,0q0,2.45 0.22,3.6q0.23,1.15 0.9,1.6q0.68,0.45 2.13,0.45l0,0q3.1,0 10.7,-1.4l0,0q0.25,-0.05 0.7,-0.05l0,0q1.3,0 2.07,0.97q0.78,0.98 0.78,2.28l0,0q0,2.65 -3.85,3.35l0,0q-3.45,0.65 -5.22,0.87q-1.78,0.23 -4.48,0.23l0,0zm31.2,-0.1q-3.75,0 -6.73,-1.58q-2.97,-1.57 -4.65,-4.15q-1.67,-2.57 -1.67,-5.52l0,0q0,-1.9 0.97,-2.75q0.98,-0.85 2.53,-0.85l0,0q3.65,0 3.8,3.05l0,0q0.15,2.55 1.85,3.92q1.7,1.38 3.9,1.38l0,0q1.9,0 3.4,-0.85q1.5,-0.85 1.5,-2.5l0,0q0,-1.3 -0.95,-2.18q-0.95,-0.87 -2.23,-1.35q-1.27,-0.47 -3.52,-1.12l0,0q-2.9,-0.8 -5.15,-1.75q-2.25,-0.95 -4.23,-3.08q-1.97,-2.12 -1.97,-5.47l0,0q0,-3.05 1.67,-5.5q1.68,-2.45 4.53,-3.83q2.85,-1.37 6.25,-1.37l0,0q3.55,0 6.42,1.47q2.88,1.48 4.53,3.93q1.65,2.45 1.65,5.15l0,0q0,3.3 -3.6,3.3l0,0q-1.55,0 -2.33,-0.75q-0.77,-0.75 -1.22,-2.45l0,0q-0.45,-1.7 -1.83,-2.95q-1.37,-1.25 -3.62,-1.25l0,0q-2.2,0 -3.7,1.17q-1.5,1.18 -1.5,3.18l0,0q0,1.4 1.12,2.05q1.13,0.65 4.33,1.6l0,0q0.3,0.1 0.7,0.22q0.4,0.13 0.85,0.28l0,0q2.75,0.85 5.05,1.95q2.3,1.1 4.15,3.25q1.85,2.15 1.85,5.35l0,0q0,2.9 -1.63,5.17q-1.62,2.28 -4.4,3.55q-2.77,1.28 -6.12,1.28l0,0z"/>
         </svg>
        </svg>
       </svg>
      </svg>
     </g>
     <svg id="svg_31" width="160.22846" height="160.22846" viewBox="0 0 160.2284594154146 160.2284594154146">
      <svg id="svg_32" version="1.1" xmlns:svgjs="http://svgjs.com/svgjs" xmlns:xlink="http://www.w3.org/1999/xlink" xmlns="http://www.w3.org/2000/svg"/>
      <svg id="svg_33" width="160.22846" height="160.22846" viewBox="0 0 160.2284594154146 160.2284594154146">
       <g id="svg_34">
        <rect id="svg_35" data-fill-palette-color="accent" fill="#b10dc9" y="7.26962" x="7.26962" height="145.68921" width="145.68921"/>
        <rect id="svg_36" data-fill-palette-color="accent" opacity="0.5" fill="#b10dc9" y="0" x="14.53925" height="145.68921" width="145.68921"/>
       </g>
       <g id="svg_22" transform="matrix(1,0,0,1,20.77035585014633,20.828023239421796)">
        <svg id="svg_37" width="118.68775" height="118.57241" viewBox="0 0 118.68774771512193 118.572412936571">
         <svg id="svg_23" data-fill-palette-color="background" fill="#ffffff" class="icon-symbol-0" width="118.68775" height="118.57241" xml:space="preserve" enable-background="new 0 0 91 91" viewBox="19.20433648947987 19.668205918640187 53.19548677757753 53.14379408135983" y="0" x="0" version="1.1" xmlns:xlink="http://www.w3.org/1999/xlink" xmlns="http://www.w3.org/2000/svg">
          <g id="svg_38">
           <path id="svg_39" data-fill-palette-color="background" fill="#ffffff" d="m19.229,65.917c0.146,1.68 0.928,3.307 2.178,4.555l0.121,0.123c1.41,1.408 3.279,2.217 5.133,2.217c1.568,0 3.012,-0.578 4.063,-1.631l18.23,-18.227c0.105,-0.109 0.209,-0.221 0.307,-0.336c2.09,0.908 4.297,1.385 6.461,1.385c3.547,0 6.795,-1.293 9.143,-3.639l3.881,-3.885c3.814,-3.811 4.717,-9.699 2.355,-15.367l-0.977,-2.342l-7.637,7.637c-0.748,0.748 -1.689,0.904 -2.348,0.904c-1.295,0 -2.633,-0.594 -3.676,-1.639l-0.127,-0.125c-0.939,-0.938 -1.514,-2.111 -1.615,-3.303c-0.094,-1.084 0.223,-2.047 0.889,-2.715l7.637,-7.635l-2.342,-0.977c-5.506,-2.297 -11.639,-1.375 -15.367,2.352l-3.885,3.885c-3.869,3.871 -4.701,9.979 -2.254,15.602c-0.115,0.096 -0.227,0.199 -0.334,0.305l-18.23,18.23c-1.189,1.192 -1.76,2.833 -1.606,4.626zm4.01,-2.221l18.23,-18.23c0.193,-0.193 0.436,-0.342 0.74,-0.455l1.846,-0.688l-0.949,-1.725c-2.563,-4.664 -2.182,-9.906 0.949,-13.041l3.887,-3.885c1.727,-1.725 4.057,-2.637 6.734,-2.637c0.779,0 1.58,0.082 2.379,0.242l-3.848,3.848c-1.391,1.391 -2.057,3.311 -1.873,5.41c0.17,1.99 1.094,3.914 2.604,5.424l0.129,0.125c1.668,1.67 3.881,2.627 6.072,2.627c1.838,0 3.525,-0.674 4.752,-1.902l3.855,-3.854c0.713,3.5 -0.131,6.846 -2.408,9.119l-3.879,3.887c-1.73,1.727 -4.061,2.641 -6.738,2.641c-2.111,0 -4.289,-0.584 -6.301,-1.689l-1.719,-0.945l-0.691,1.834c-0.115,0.309 -0.266,0.551 -0.459,0.744l-18.232,18.23c-0.523,0.523 -1.191,0.635 -1.658,0.635c-0.959,0 -1.953,-0.443 -2.711,-1.201l-0.121,-0.125c-0.703,-0.703 -1.135,-1.578 -1.211,-2.461c-0.068,-0.775 0.154,-1.459 0.621,-1.928z"/>
          </g>
         </svg>
        </svg>
       </g>
      </svg>
     </svg>
    </svg>
   </svg>
  </g>
 </g>
</svg>